#!OML:ASF E:\motion texture\Top Level 1\Subject 1\Session 1\male.ASF
:FULLY-SPECIFIED
:DEGREES
439
root -10.5576 17.9339 6.04102 192.001 -79.574 -187.055
lowerback 0.18239 -0.214092 -2.02529
upperback -0.504844 -0.295192 1.93784
thorax -0.599477 -0.137173 3.12745
lowerneck -16.7688 1.17867 -1.97229
upperneck 17.2383 1.36507 3.32602
head 8.06446 0.825952 1.58966
rclavicle 1.03865e-014 -2.22639e-014
rhumerus -32.4061 -23.2585 -69.0446
rradius 27.3878
rwrist 15.4978
rhand -15.2275 -29.4174
rfingers 7.12502
rthumb 10.9453 -59.1121
lclavicle 1.03865e-014 -2.22639e-014
lhumerus -22.4756 25.9493 68.7628
lradius 22.9396
lwrist -38.31
lhand -13.4634 28.3101
lfingers 7.12502
lthumb 12.6465 57.9073
rfemur -28.4552 -6.57874 18.2434
rtibia 54.406
rfoot -1.97384 -15.7159
rtoes 6.62874
lfemur -11.8514 -2.68582 -22.3592
ltibia 26.2024
lfoot -10.5012 5.93548
ltoes -11.2523
440
root -10.6908 17.9469 6.0324 192.758 -79.6504 -187.797
lowerback 0.136989 -0.301268 -2.12798
upperback -0.545896 -0.411377 1.97197
thorax -0.607174 -0.194259 3.22123
lowerneck -16.8397 1.24246 -1.89289
upperneck 17.3736 1.45288 3.21121
head 8.12128 0.860804 1.55101
rclavicle 5.41688e-015 -3.18055e-014
rhumerus -31.7708 -22.6775 -69.7322
rradius 27.8962
rwrist 14.9304
rhand -15.3918 -29.3089
rfingers 7.12502
rthumb 10.7868 -59.0119
lclavicle 5.41688e-015 -3.18055e-014
lhumerus -21.3596 24.0064 69.9475
lradius 23.6796
lwrist -36.5997
lhand -13.6911 28.265
lfingers 7.12502
lthumb 12.4269 57.8755
rfemur -28.9232 -6.6909 18.2353
rtibia 52.9076
rfoot -2.57014 -15.7543
rtoes 6.75047
lfemur -11.182 -2.76988 -22.5758
ltibia 25.8015
lfoot -10.51 5.84504
ltoes -11.6858
441
root -10.8235 17.9591 6.02273 193.512 -79.7449 -188.524
lowerback 0.0862706 -0.386204 -2.22468
upperback -0.590763 -0.524453 2.00677
thorax -0.615541 -0.249747 3.31219
lowerneck -16.9118 1.29863 -1.81909
upperneck 17.5046 1.53047 3.10372
head 8.17733 0.891101 1.51453
rclavicle 1.38652e-014 -4.77083e-015
rhumerus -31.1641 -22.0878 -70.4031
rradius 28.3976
rwrist 14.4088
rhand -15.5247 -29.1877
rfingers 7.12502
rthumb 10.6587 -58.8974
lclavicle 1.38652e-014 -4.77083e-015
lhumerus -20.3179 22.012 71.0588
lradius 24.4894
lwrist -34.9006
lhand -13.905 28.1925
lfingers 7.12502
lthumb 12.2207 57.8155
rfemur -29.3538 -6.78398 18.2285
rtibia 51.3078
rfoot -3.13003 -15.7382
rtoes 6.82539
lfemur -10.5278 -2.85489 -22.7767
ltibia 25.4012
lfoot -10.5126 5.74279
ltoes -12.1288
442
root -10.9559 17.9703 6.01204 194.281 -79.8546 -189.255
lowerback 0.0316581 -0.468469 -2.31847
upperback -0.638563 -0.633863 2.04095
thorax -0.62455 -0.303342 3.40075
lowerneck -16.9863 1.34736 -1.75031
upperneck 17.632 1.59808 3.00283
head 8.23302 0.916954 1.47991
rclavicle -1.49089e-016 1.43125e-014
rhumerus -30.5849 -21.4923 -71.0568
rradius 28.8903
rwrist 13.9348
rhand -15.6295 -29.0549
rfingers 7.12502
rthumb 10.5576 -58.7698
lclavicle -1.49089e-016 1.43125e-014
lhumerus -19.349 19.9851 72.0941
lradius 25.3682
lwrist -33.2304
lhand -14.0967 28.1007
lfingers 7.12502
lthumb 12.0358 57.7346
rfemur -29.7469 -6.85578 18.2171
rtibia 49.624
rfoot -3.64396 -15.6746
rtoes 6.83863
lfemur -9.88793 -2.93904 -22.9654
ltibia 25.0039
lfoot -10.5129 5.62885
ltoes -12.5728
443
root -11.088 17.9805 6.00035 195.074 -79.9771 -190.002
lowerback -0.0259814 -0.547625 -2.41071
upperback -0.688188 -0.739027 2.0738
thorax -0.633635 -0.354765 3.48693
lowerneck -17.0645 1.38895 -1.68704
upperneck 17.7551 1.65623 2.90881
head 8.28825 0.938638 1.44739
rclavicle 2.68359e-014 7.95139e-015
rhumerus -30.0321 -20.894 -71.6923
rradius 29.374
rwrist 13.5085
rhand -15.705 -28.9149
rfingers 7.12502
rthumb 10.4847 -58.6334
lclavicle 2.68359e-014 7.95139e-015
lhumerus -18.448 17.9484 73.0532
lradius 26.3125
lwrist -31.6098
lhand -14.2596 27.9927
lfingers 7.12502
lthumb 11.8787 57.6358
rfemur -30.103 -6.90282 18.1965
rtibia 47.8732
rfoot -4.10949 -15.5742
rtoes 6.78785
lfemur -9.26203 -3.02156 -23.1441
ltibia 24.6126
lfoot -10.5125 5.50387
ltoes -13.0208
444
root -11.22 17.9894 5.9877 195.902 -80.1095 -190.778
lowerback -0.084884 -0.623232 -2.50276
upperback -0.739399 -0.839378 2.10439
thorax -0.643626 -0.403707 3.57056
lowerneck -17.1457 1.42412 -1.63003
upperneck 17.8753 1.70584 2.82247
head 8.34331 0.956612 1.41748
rclavicle 5.06901e-015 -3.97569e-015
rhumerus -29.5065 -20.2927 -72.3096
rradius 29.8485
rwrist 13.1266
rhand -15.7569 -28.762
rfingers 7.12502
rthumb 10.4347 -58.483
lclavicle 5.06901e-015 -3.97569e-015
lhumerus -17.6135 15.9169 73.9363
lradius 27.3212
lwrist -30.0548
lhand -14.4027 27.8624
lfingers 7.12502
lthumb 11.7408 57.5133
rfemur -30.4225 -6.92233 18.1622
rtibia 46.0751
rfoot -4.52614 -15.4453
rtoes 6.68677
lfemur -8.64832 -3.10073 -23.3152
ltibia 24.2297
lfoot -10.5129 5.3687
ltoes -13.4738
445
root -11.352 17.9971 5.97409 196.772 -80.2508 -191.591
lowerback -0.143625 -0.695576 -2.5953
upperback -0.791606 -0.935319 2.13219
thorax -0.654726 -0.450365 3.65148
lowerneck -17.2317 1.45342 -1.57737
upperneck 17.993 1.74752 2.74224
head 8.3986 0.971159 1.38941
rclavicle -2.18663e-015 -2.78299e-014
rhumerus -29.008 -19.685 -72.9104
rradius 30.316
rwrist 12.782
rhand -15.7877 -28.6085
rfingers 7.12502
rthumb 10.4049 -58.331
lclavicle -2.18663e-015 -2.78299e-014
lhumerus -16.842 13.9032 74.7455
lradius 28.3909
lwrist -28.575
lhand -14.5238 27.715
lfingers 7.12502
lthumb 11.624 57.3726
rfemur -30.7056 -6.91231 18.1112
rtibia 44.2465
rfoot -4.89614 -15.2991
rtoes 6.54203
lfemur -8.04675 -3.17583 -23.4796
ltibia 23.8583
lfoot -10.5163 5.22322
ltoes -13.9276
